<?xml version="1.0" encoding="utf-8"?>
<!-- Generator: Adobe Illustrator 23.0.4, SVG Export Plug-In . SVG Version: 6.00 Build 0)  -->
<svg version="1.1" id="图层_1" xmlns="http://www.w3.org/2000/svg" xmlns:xlink="http://www.w3.org/1999/xlink" x="0px" y="0px"
	 viewBox="0 0 20 20" style="enable-background:new 0 0 20 20;" xml:space="preserve">
<style type="text/css">
	.st0{fill:#FFFFFF;}
</style>
<g>
	<g id="分组-11" transform="translate(0.000000, 2.000000)">
		<path class="st0" d="M9.6,16c-0.4,0-0.7-0.2-1-0.4l-4.9-3.8H1.5c-0.7,0-1.3-0.6-1.3-1.3V6c0-0.7,0.6-1.3,1.3-1.3h2.2l5-4.2
			C9.1,0.1,9.5,0,9.7,0c0.6,0,1.1,0.5,1.1,1.2v13.6c0,0.3-0.1,0.6-0.4,0.8C10.2,15.9,9.9,16,9.6,16z M1.5,5.6C1.4,5.6,1.2,5.8,1.2,6
			v4.5c0,0.2,0.1,0.3,0.3,0.3H4l5.2,4C9.4,15,9.7,15.1,9.8,15V1.3c0-0.1,0-0.2-0.1-0.2C9.6,1,9.5,1.1,9.4,1.2L4.1,5.6H1.5z"/>
	</g>
	<path class="st0" d="M19.4,13.5c-0.1,0-0.3,0-0.4-0.1l-5.2-5.1c-0.2-0.2-0.2-0.5,0-0.7s0.5-0.2,0.7,0l5.2,5.1
		c0.2,0.2,0.2,0.5,0,0.7C19.7,13.5,19.6,13.5,19.4,13.5z"/>
	<path class="st0" d="M14.2,13.5c-0.1,0-0.3,0-0.4-0.1c-0.1-0.1-0.1-0.2-0.1-0.4c0-0.1,0-0.3,0.1-0.4L19,7.5c0.2-0.2,0.5-0.2,0.7,0
		c0.1,0.1,0.1,0.2,0.1,0.4c0,0.1,0,0.3-0.1,0.4l-5.2,5.1C14.5,13.5,14.4,13.5,14.2,13.5z"/>
</g>
</svg>
